<svg  xmlns="http://www.w3.org/2000/svg" width="128" height="128"  
fill="#ffffff" viewBox="0 0 24 24" >
<!--Boxicons v3.0 https://boxicons.com | License  https://docs.boxicons.com/free-->
<path d="m20,2H4c-.55,0-1,.45-1,1v2c0,.22.07.43.2.6l5.8,7.73v7.67c0,.35.18.67.47.85.16.1.34.15.53.15.15,0,.31-.04.45-.11l4-2c.34-.17.55-.52.55-.89v-5.67l5.8-7.73c.13-.17.2-.38.2-.6v-2c0-.55-.45-1-1-1Zm-1,2.67l-5.8,7.73c-.13.17-.2.38-.2.6v5.38l-2,1v-6.38c0-.22-.07-.43-.2-.6l-5.8-7.73v-.67h14v.67Z"></path>
</svg>